<?xml version="1.0" standalone="no"?><!DOCTYPE svg PUBLIC "-//W3C//DTD SVG 1.1//EN" "http://www.w3.org/Graphics/SVG/1.1/DTD/svg11.dtd"><svg t="1612964477687" class="icon" viewBox="0 0 1024 1024" version="1.1" xmlns="http://www.w3.org/2000/svg" p-id="4344" xmlns:xlink="http://www.w3.org/1999/xlink" width="200" height="200"><defs><style type="text/css"></style></defs><path d="M485.333333 52.053333a42.666667 42.666667 0 0 1 53.333334 0l298.282666 238.592 170.282667 130.133334a42.666667 42.666667 0 0 1-51.797333 67.797333l-170.666667-130.432-0.768-0.597333L512 139.946667l-277.333333 221.866666v523.52h170.666666a42.666667 42.666667 0 1 1 0 85.333334h-213.333333a42.666667 42.666667 0 0 1-42.666667-42.666667V434.090667L70.4 501.76a42.666667 42.666667 0 0 1-55.466667-64.768l149.333334-128a42.666667 42.666667 0 0 1 1.066666-0.938667l320-256zM832 512a42.666667 42.666667 0 0 1 42.666667 42.666667v373.333333a42.666667 42.666667 0 0 1-42.666667 42.666667H597.333333a42.666667 42.666667 0 1 1 0-85.333334h192V554.666667a42.666667 42.666667 0 0 1 42.666667-42.666667z" fill="#75C82B" p-id="4345"></path><path d="M490.666667 682.666667a42.666667 42.666667 0 0 0-42.666667 42.666666v160h128V725.333333a42.666667 42.666667 0 0 0-42.666667-42.666666h-42.666666z m-128 42.666666a128 128 0 0 1 128-128h42.666666a128 128 0 0 1 128 128v202.666667a42.666667 42.666667 0 0 1-42.666666 42.666667h-213.333334a42.666667 42.666667 0 0 1-42.666666-42.666667V725.333333z" fill="#75C82B" p-id="4346"></path></svg>