<?xml version="1.0" standalone="no"?><!DOCTYPE svg PUBLIC "-//W3C//DTD SVG 1.1//EN" "http://www.w3.org/Graphics/SVG/1.1/DTD/svg11.dtd"><svg t="1612964739324" class="icon" viewBox="0 0 1098 1024" version="1.1" xmlns="http://www.w3.org/2000/svg" p-id="6758" xmlns:xlink="http://www.w3.org/1999/xlink" width="214.453125" height="200"><defs><style type="text/css"></style></defs><path d="M430.415127 788.628945c-56.971636 0-106.793891 50.5856-106.793891 108.376437 0 57.809455 49.840873 108.376436 106.793891 108.376436 56.9344 0 106.775273-50.566982 106.775273-108.357818 0-57.809455-49.840873-108.395055-106.775273-108.395055z m0 144.49571c-21.355055 0-35.597964-14.447709-35.597963-36.119273s14.242909-36.119273 35.597963-36.119273c21.355055 0 35.579345 14.447709 35.579346 36.119273 0 14.447709-14.224291 36.119273-35.579346 36.119273z m427.101091-144.477091c-56.9344 0-106.756655 50.566982-106.756654 108.357818C750.759564 954.814836 800.581818 1005.381818 857.534836 1005.381818s106.775273-50.566982 106.775273-108.357818c0-57.809455-49.822255-108.395055-106.775273-108.395055z m0 144.477091c-21.336436 0-35.560727-14.447709-35.560727-36.119273s14.224291-36.119273 35.560727-36.119273c21.373673 0 35.616582 14.447709 35.616582 36.119273 0 14.447709-14.242909 36.119273-35.597964 36.119273z m92.550982-310.662982H387.705018l-14.242909-72.238546h562.3808c7.112145 0 14.224291 0 14.224291-7.242472 14.242909-7.223855 21.355055-14.447709 21.355055-28.895419l64.083781-281.767563c0-7.223855 7.112145-7.223855 7.112146-14.466328 0-21.671564-14.242909-36.119273-35.597964-36.119272H437.527273c-21.355055 0-35.597964 14.447709-35.597964 36.119272 0 21.690182 14.242909 36.119273 35.597964 36.119273h526.782836l-49.822254 216.771491H359.2192l-92.532364-404.610327v-14.447709C252.443927 44.460218 245.313164 37.236364 231.088873 37.236364h-121.018182C88.715636 37.236364 74.472727 51.684073 74.472727 73.355636s14.242909 36.119273 35.597964 36.119273h92.532364l121.018181 556.329891c0 14.447709 7.130764 21.671564 21.355055 21.671564h612.221673c21.355055 0 35.597964-14.447709 35.597963-36.119273-7.130764-14.447709-21.373673-28.895418-42.728727-28.895418z" fill="#E6B277" p-id="6759"></path></svg>