<?xml version="1.0" standalone="no"?><!DOCTYPE svg PUBLIC "-//W3C//DTD SVG 1.1//EN" "http://www.w3.org/Graphics/SVG/1.1/DTD/svg11.dtd"><svg t="1612964709941" class="icon" viewBox="0 0 1024 1024" version="1.1" xmlns="http://www.w3.org/2000/svg" p-id="6632" xmlns:xlink="http://www.w3.org/1999/xlink" width="200" height="200"><defs><style type="text/css"></style></defs><path d="M1023.990001 195.170446l-108.422471 354.180071c-33.731435 55.415929-72.281647 50.597153-72.281647 50.597153H303.582918l13.251635 74.691036H891.473648c30.117353 0 30.117353 74.691035 0 74.691035H287.921894s-32.526741-6.023471-48.187764-49.392459l-108.422471-625.236248h-108.422471C-7.228165 74.701034-7.228165 0.009999 22.889188 0.009999h120.469412c19.275106 0 53.006541-1.204694 56.620624 22.889188l95.170835 501.152754H843.285883c0-1.204694 104.808388-299.968836 104.808389-299.968836H336.109659c-30.117353 0-30.117353-74.691035 0-74.691035H987.849177c1.204694 0 39.754906 6.023471 36.140824 45.778376zM336.109659 824.020776c53.006541 0 96.37553 44.573682 96.37553 99.989612 0 55.415929-43.368988 99.989612-96.37553 99.989612s-96.37553-44.573682-96.375529-99.989612c0-54.211235 43.368988-99.989612 96.375529-99.989612z m0 138.539824c20.4798 0 36.140824-16.865718 36.140824-37.345518 0-20.4798-15.661024-37.345518-36.140824-37.345517s-36.140824 16.865718-36.140823 37.345517c0 20.4798 15.661024 37.345518 36.140823 37.345518z m409.596001-38.550212c0-55.415929 43.368988-99.989612 96.375529-99.989612s96.37553 44.573682 96.37553 99.989612c0 55.415929-43.368988 99.989612-96.37553 99.989612s-96.37553-44.573682-96.375529-99.989612z m133.721047 0c0-20.4798-15.661024-37.345518-36.140824-37.345518s-36.140824 16.865718-36.140823 37.345518c0 20.4798 15.661024 37.345518 36.140823 37.345518 19.275106 1.204694 36.140824-15.661024 36.140824-37.345518z" p-id="6633"></path></svg>